<svg width="72" height="72" viewBox="0 0 72 72" fill="none" xmlns="http://www.w3.org/2000/svg">
<path d="M36 6C30.0666 6 24.2664 7.75947 19.3329 11.0559C14.3994 14.3524 10.5543 19.0377 8.28363 24.5195C6.013 30.0013 5.4189 36.0333 6.57646 41.8527C7.73401 47.6721 10.5912 53.0176 14.7868 57.2132C18.9824 61.4088 24.3279 64.266 30.1473 65.4236C35.9667 66.5811 41.9987 65.987 47.4805 63.7164C52.9623 61.4458 57.6477 57.6006 60.9441 52.6671C64.2405 47.7336 66 41.9334 66 36C66 32.0603 65.224 28.1593 63.7164 24.5195C62.2088 20.8797 59.999 17.5726 57.2132 14.7868C54.4275 12.001 51.1203 9.79126 47.4805 8.28361C43.8408 6.77597 39.9397 6 36 6ZM39 48C39 48.7957 38.6839 49.5587 38.1213 50.1213C37.5587 50.6839 36.7957 51 36 51C35.2044 51 34.4413 50.6839 33.8787 50.1213C33.3161 49.5587 33 48.7957 33 48V33C33 32.2044 33.3161 31.4413 33.8787 30.8787C34.4413 30.3161 35.2044 30 36 30C36.7957 30 37.5587 30.3161 38.1213 30.8787C38.6839 31.4413 39 32.2044 39 33V48ZM36 27C35.4067 27 34.8267 26.8241 34.3333 26.4944C33.84 26.1648 33.4554 25.6962 33.2284 25.1481C33.0013 24.5999 32.9419 23.9967 33.0577 23.4147C33.1734 22.8328 33.4591 22.2982 33.8787 21.8787C34.2983 21.4591 34.8328 21.1734 35.4147 21.0576C35.9967 20.9419 36.5999 21.0013 37.1481 21.2284C37.6962 21.4554 38.1648 21.8399 38.4944 22.3333C38.8241 22.8266 39 23.4067 39 24C39 24.7956 38.6839 25.5587 38.1213 26.1213C37.5587 26.6839 36.7957 27 36 27Z" fill="#FBB040"/>
</svg>
