<svg width="17" height="17" viewBox="0 0 17 17" fill="currentColor" xmlns="http://www.w3.org/2000/svg">
    <path d="M8.93035 4.854C8.12538 4.854 7.33849 5.09271 6.66918 5.53992C5.99987 5.98714 5.47821 6.62279 5.17016 7.36648C4.86212 8.11018 4.78152 8.92852 4.93856 9.71802C5.0956 10.5075 5.48323 11.2327 6.05243 11.8019C6.62163 12.3711 7.34683 12.7588 8.13634 12.9158C8.92584 13.0728 9.74418 12.9922 10.4879 12.6842C11.2316 12.3761 11.8672 11.8545 12.3144 11.1852C12.7617 10.5159 13.0004 9.72897 13.0004 8.924C13.0005 8.38949 12.8953 7.86018 12.6908 7.36633C12.4863 6.87247 12.1865 6.42375 11.8086 6.04579C11.4306 5.66783 10.9819 5.36804 10.488 5.16355C9.99418 4.95906 9.46487 4.85387 8.93035 4.854ZM8.93035 11.565C8.40782 11.565 7.89701 11.4101 7.46254 11.1197C7.02806 10.8294 6.68943 10.4168 6.48946 9.93405C6.2895 9.45129 6.23718 8.92007 6.33912 8.40758C6.44106 7.89508 6.69269 7.42432 7.06218 7.05483C7.43167 6.68534 7.90243 6.43371 8.41493 6.33177C8.92742 6.22983 9.45864 6.28215 9.9414 6.48211C10.4242 6.68208 10.8368 7.02071 11.1271 7.45519C11.4174 7.88966 11.5724 8.40047 11.5724 8.923C11.5725 9.26999 11.5042 9.61361 11.3715 9.93421C11.2388 10.2548 11.0442 10.5461 10.7988 10.7915C10.5535 11.0368 10.2622 11.2314 9.94156 11.3642C9.62096 11.4969 9.27734 11.5651 8.93035 11.565Z"/>
    <path d="M12.2269 0.977019C10.7549 0.908019 7.10894 0.912019 5.63594 0.977019C4.39046 0.954286 3.18528 1.41856 2.27694 2.27102C0.737942 3.80902 0.934942 5.88302 0.934942 8.92602C0.934942 12.038 0.761942 14.063 2.27694 15.579C3.82194 17.12 5.92694 16.918 8.92694 16.918C12.0099 16.918 13.0739 16.918 14.1639 16.498C15.6459 15.923 16.7639 14.598 16.8739 12.219C16.9429 10.746 16.9389 7.10102 16.8739 5.62802C16.7439 2.81902 15.2369 1.11602 12.2269 0.977019ZM14.5569 14.558C13.5479 15.567 12.1489 15.477 8.91194 15.477C5.57894 15.477 4.24194 15.526 3.26694 14.548C2.14394 13.43 2.34694 11.635 2.34694 8.91302C2.34694 5.23002 1.96894 2.57702 5.66594 2.38802C6.51494 2.35802 6.76594 2.34802 8.90294 2.34802L8.93294 2.36802C12.4859 2.36802 15.2729 1.99602 15.4399 5.69202C15.4779 6.53502 15.4869 6.79202 15.4869 8.92302C15.4869 12.218 15.5489 13.562 14.5579 14.558H14.5569Z"/>
    <path d="M13.1916 5.62887C13.7262 5.62887 14.1596 5.19548 14.1596 4.66087C14.1596 4.12626 13.7262 3.69287 13.1916 3.69287C12.657 3.69287 12.2236 4.12626 12.2236 4.66087C12.2236 5.19548 12.657 5.62887 13.1916 5.62887Z" />
</svg>
