<svg width="16" height="16" viewBox="0 0 16 16" fill="none" xmlns="http://www.w3.org/2000/svg">
<path d="M8 5.33317C8.73333 5.33317 9.33333 4.73317 9.33333 3.99984C9.33333 3.2665 8.73333 2.6665 8 2.6665C7.26666 2.6665 6.66666 3.2665 6.66666 3.99984C6.66666 4.73317 7.26666 5.33317 8 5.33317ZM8 6.6665C7.26666 6.6665 6.66666 7.2665 6.66666 7.99984C6.66666 8.73317 7.26666 9.33317 8 9.33317C8.73333 9.33317 9.33333 8.73317 9.33333 7.99984C9.33333 7.2665 8.73333 6.6665 8 6.6665ZM8 10.6665C7.26666 10.6665 6.66666 11.2665 6.66666 11.9998C6.66666 12.7332 7.26666 13.3332 8 13.3332C8.73333 13.3332 9.33333 12.7332 9.33333 11.9998C9.33333 11.2665 8.73333 10.6665 8 10.6665Z" fill="#C7D2E3"/>
</svg>
