<svg width="18" height="18" viewBox="0 0 18 18" fill="none" xmlns="http://www.w3.org/2000/svg">
<path d="M4.5 16.5C3.90326 16.5 3.33097 16.2629 2.90901 15.841C2.48705 15.419 2.25 14.8467 2.25 14.25V3.75C2.25 3.15326 2.48705 2.58097 2.90901 2.15901C3.33097 1.73705 3.90326 1.5 4.5 1.5H10.629C11.2254 1.50033 11.7973 1.73745 12.219 2.15925L15.0915 5.03025C15.5132 5.45223 15.7501 6.02442 15.75 6.621V14.25C15.75 14.8467 15.5129 15.419 15.091 15.841C14.669 16.2629 14.0967 16.5 13.5 16.5H4.5ZM3.75 14.25C3.75 14.4489 3.82902 14.6397 3.96967 14.7803C4.11032 14.921 4.30109 15 4.5 15H13.5C13.6989 15 13.8897 14.921 14.0303 14.7803C14.171 14.6397 14.25 14.4489 14.25 14.25V7.5H12C11.4033 7.5 10.831 7.26295 10.409 6.84099C9.98705 6.41903 9.75 5.84674 9.75 5.25V3H4.5C4.30109 3 4.11032 3.07902 3.96967 3.21967C3.82902 3.36032 3.75 3.55109 3.75 3.75V14.25ZM12 6H13.9395L11.25 3.3105V5.25C11.25 5.44891 11.329 5.63968 11.4697 5.78033C11.6103 5.92098 11.8011 6 12 6ZM6 9C5.80109 9 5.61032 9.07902 5.46967 9.21967C5.32902 9.36032 5.25 9.55109 5.25 9.75C5.25 9.94891 5.32902 10.1397 5.46967 10.2803C5.61032 10.421 5.80109 10.5 6 10.5H12C12.1989 10.5 12.3897 10.421 12.5303 10.2803C12.671 10.1397 12.75 9.94891 12.75 9.75C12.75 9.55109 12.671 9.36032 12.5303 9.21967C12.3897 9.07902 12.1989 9 12 9H6ZM6 12C5.80109 12 5.61032 12.079 5.46967 12.2197C5.32902 12.3603 5.25 12.5511 5.25 12.75C5.25 12.9489 5.32902 13.1397 5.46967 13.2803C5.61032 13.421 5.80109 13.5 6 13.5H9C9.19891 13.5 9.38968 13.421 9.53033 13.2803C9.67098 13.1397 9.75 12.9489 9.75 12.75C9.75 12.5511 9.67098 12.3603 9.53033 12.2197C9.38968 12.079 9.19891 12 9 12H6Z" fill="#849AA9"/>
</svg>
