<svg width="41" height="24" viewBox="0 0 41 24" fill="none" xmlns="http://www.w3.org/2000/svg">
<path opacity="0.1" fill-rule="evenodd" clip-rule="evenodd" d="M15.8045 1.51376C13.9463 0.506099 11.7833 0 9.31312 0H0V10.1054H21.4837C21.283 8.52293 20.8208 7.06286 20.0972 5.75092C19.0958 3.93532 17.6649 2.52369 15.8067 1.51149L15.8045 1.51376ZM21.4136 14.316H0V24H9.31312C11.761 24 13.9129 23.4848 15.7733 22.4499C17.6315 21.4173 19.0669 19.9943 20.0794 18.1765C20.7381 16.9953 21.1831 15.7085 21.4136 14.316ZM28.1825 14.316H34.725V24H28.1825V14.316ZM34.725 10.1054H28.1825V5.31064H21.5977V0H41.0006V5.31064H34.725V10.1054Z" fill="white"/>
</svg>
