<svg width="28" height="22" viewBox="0 0 28 22" fill="none" xmlns="http://www.w3.org/2000/svg">
<path fill-rule="evenodd" clip-rule="evenodd" d="M9.08354 0H20.3631C25.9443 0 28 2.20072 28 7.64317V14.3568C28 19.8065 25.9168 22 20.3631 22H7.63689C1.57251 22 0 19.2346 0 14.3568V8.07753C0 2.63652 1.57251 0 9.08354 0ZM6.47378 17.1468H9.79675V4.96321H6.47378V17.1468ZM17.179 17.1468C20.3212 17.1468 22.8673 14.5972 22.8673 11.4539V10.4867C22.8673 7.43613 20.3964 4.96321 17.3497 4.96321H11.9479V17.1468H17.179ZM18.251 10.8878C18.1917 10.9167 18.128 10.9891 18.0716 11.0818C17.9486 11.2845 17.8662 11.5799 17.979 11.6928C18.0315 11.7453 18.1427 11.7879 18.307 11.8509C18.6548 11.9843 19.2403 12.2087 20.0087 12.8105C19.2043 14.4727 17.2991 14.6898 17.2991 14.6898H13.8532V13.6952C13.8532 12.4798 15.4913 11.897 15.9784 11.7237C16.0374 11.7027 16.0795 11.6877 16.0998 11.6783C16.2937 11.59 16.2257 11.3424 16.1533 11.1774C15.608 10.7198 15.242 9.91484 15.242 9.24014C15.242 8.23534 16.0564 7.4202 17.0604 7.4202C18.0644 7.4202 18.8774 8.23534 18.8774 9.24014C18.8774 9.78164 18.6416 10.4071 18.2655 10.8704L18.2524 10.8878H18.251Z" fill="white"/>
</svg>
