<svg width="90" height="96" viewBox="0 0 90 96" fill="none" xmlns="http://www.w3.org/2000/svg">
<g clip-path="url(#clip0_522_3830)">
<path d="M40.8398 96.0001C35.0492 95.7043 29.2503 95.5211 23.468 95.0837C18.5688 94.7131 13.744 93.8092 9.12557 92.0058C8.29598 91.6809 7.47878 91.3144 6.69046 90.8979C-0.775833 86.9661 -2.23277 78.2237 3.5372 71.9761C6.09613 69.2022 9.24939 67.2321 12.4687 65.3662C16.6909 62.9171 20.9627 60.5597 25.5564 58.8646C26.3571 58.5688 27.133 58.169 27.8512 57.7108C30.4637 56.0448 31.2355 53.2626 29.791 50.5012C29.2173 49.4099 28.4455 48.4145 27.6902 47.4315C23.5835 42.0545 20.6077 36.1568 19.5388 29.3927C18.767 24.5155 18.7876 19.6632 20.2363 14.8901C22.9149 6.08935 30.1542 0.483202 39.2838 0.0458732C43.8238 -0.170709 48.207 0.370746 52.2311 2.63653C58.323 6.07269 61.4846 11.5705 62.4999 18.3471C63.9898 28.3098 61.402 37.2688 55.5454 45.3407C54.7364 46.4569 53.8614 47.5398 53.1722 48.731C52.5737 49.764 52.066 50.8927 51.7524 52.0422C51.0425 54.6662 51.7194 56.6571 54.0348 58.0191C56.0365 59.1936 58.2075 60.1016 60.3578 60.9846C65.6738 63.1712 70.9113 65.4953 75.4637 69.1106C76.5368 69.9644 77.5398 70.9307 78.4478 71.9636C81.7661 75.7455 82.2862 80.2021 81.1842 84.921C80.7013 86.9911 79.2567 88.4863 77.5604 89.69C74.3163 91.9891 70.5976 93.072 66.784 93.8592C58.872 95.4878 50.8485 95.7626 42.8085 95.7793C42.1564 95.7793 41.5043 95.7793 40.8522 95.7793L40.8398 96.0042V96.0001Z" fill="#DFE2E9"/>
<path d="M81.6711 51.9795C80.4164 53.2707 79.2979 54.4369 78.1587 55.5864C77.226 56.5277 76.805 56.5152 75.8433 55.5573C75.183 54.8992 74.535 54.2328 73.8787 53.5747C73.2101 52.9083 73.2307 52.2544 73.8952 51.6005C75.0963 50.4176 76.2932 49.2264 77.6016 47.9311C76.4624 46.7815 75.3811 45.6903 74.3038 44.599C73.0491 43.3329 73.0491 43.0538 74.2708 41.8168C74.8032 41.2795 75.3357 40.7381 75.8722 40.2008C76.8091 39.2678 77.2342 39.2678 78.1876 40.2299C79.3226 41.3753 80.4411 42.5415 81.6917 43.8202C82.9093 42.5582 84.0443 41.367 85.1999 40.1924C86.1038 39.2761 86.5495 39.2761 87.441 40.1591C88.1014 40.813 88.7618 41.4711 89.4056 42.1417C90.1857 42.958 90.1857 43.4328 89.3768 44.2575C88.217 45.4362 87.0324 46.5899 85.7282 47.8769C86.8962 49.039 88.0106 50.1427 89.1167 51.2589C90.3013 52.4501 90.293 52.7417 89.0878 53.9662C88.4811 54.5785 87.8785 55.1907 87.2677 55.7988C86.6404 56.4236 86.0089 56.4194 85.3857 55.7822C84.1846 54.5535 82.9836 53.3248 81.6711 51.9753V51.9795Z" fill="#DFE2E9"/>
</g>
<defs>
<clipPath id="clip0_522_3830">
<rect width="90" height="96" fill="white"/>
</clipPath>
</defs>
</svg>
