<svg width="16" height="16" viewBox="0 0 16 16" fill="none" xmlns="http://www.w3.org/2000/svg">
<path d="M8.00333 4.33341C9.84333 4.33341 11.3367 5.82675 11.3367 7.66675C11.3367 8.10008 11.25 8.50675 11.0967 8.88675L13.0433 10.8334C14.05 9.99341 14.8433 8.90675 15.33 7.66675C14.1767 4.74008 11.33 2.66675 7.99667 2.66675C7.06333 2.66675 6.17 2.83341 5.34333 3.13341L6.78333 4.57341C7.16333 4.42008 7.57 4.33341 8.00333 4.33341ZM1.33666 2.51341L3.16333 4.34008C2.05666 5.20008 1.19 6.34675 0.669998 7.66675C1.82333 10.5934 4.67 12.6667 8.00333 12.6667C9.03666 12.6667 10.0233 12.4667 10.9233 12.1067L11.2033 12.3867L13.1567 14.3334L14.0033 13.4867L2.18333 1.66675L1.33666 2.51341ZM5.02333 6.20008L6.05666 7.23341C6.02333 7.37341 6.00333 7.52008 6.00333 7.66675C6.00333 8.77341 6.89667 9.66675 8.00333 9.66675C8.15 9.66675 8.29666 9.64675 8.43666 9.61341L9.47 10.6467C9.02333 10.8667 8.53 11.0001 8.00333 11.0001C6.16333 11.0001 4.67 9.50675 4.67 7.66675C4.67 7.14008 4.80333 6.64675 5.02333 6.20008ZM7.89667 5.68008L9.99667 7.78008L10.01 7.67341C10.01 6.56675 9.11666 5.67341 8.01 5.67341L7.89667 5.68008Z" fill="#456E4C"/>
</svg>
