<svg data-v-295528fb="" xmlns="http://www.w3.org/2000/svg" width="16" height="17" fill="currentColor" class="dt-header__nav__item__icon"><path d="M14.06 5.153c-.567-.626-1.513-.94-2.886-.94h-.16v-.026c0-1.12 0-2.507-2.507-2.507H7.494c-2.507 0-2.507 1.393-2.507 2.507v.033h-.16c-1.38 0-2.32.313-2.887.94-.66.733-.64 1.72-.573 2.393l.007.047.066.7c.007.007.02.02.034.027.22.146.446.293.686.426q.143.089.294.167a11.4 11.4 0 0 0 3.666 1.253c.06.627.334 1.36 1.794 1.36s1.746-.726 1.793-1.373a11.2 11.2 0 0 0 3.86-1.387c.04-.02.066-.04.1-.06a9 9 0 0 0 .873-.566.1.1 0 0 0 .034-.034l.026-.24.034-.313c.006-.04.006-.073.013-.12.053-.673.04-1.593-.587-2.287M8.727 9.72c0 .707 0 .813-.82.813s-.82-.126-.82-.806v-.84h1.64zM5.94 4.213v-.026c0-1.134 0-1.554 1.554-1.554h1.013c1.553 0 1.553.427 1.553 1.554v.033H5.94z"></path><path d="m13.667 8.7-.1.06a11.4 11.4 0 0 1-3.86 1.387c-.054.64-.334 1.373-1.794 1.373s-1.74-.727-1.793-1.36a11.1 11.1 0 0 1-3.667-1.253c-.1-.054-.2-.107-.293-.167a10 10 0 0 1-.687-.427c-.013-.006-.026-.02-.033-.026l.407 4.34c.14 1.326.686 2.693 3.62 2.693h5.08c2.933 0 3.48-1.367 3.62-2.7l.42-4.52a.1.1 0 0 1-.034.033c-.286.207-.58.4-.886.567" opacity=".4"></path></svg>