<svg xmlns="http://www.w3.org/2000/svg" width="16" height="17" fill="none" class="dt-header__nav__item__icon"
     data-v-5805ac5c="">
    <path fill="currentColor"
          d="M2 3.167c0-.736.597-1.333 1.333-1.333h6.334c.736 0 1.763.597 1.763 1.333v7.667c0 1.07-.93 1.57-1.763 1.57H3.333A1.333 1.333 0 0 1 2 11.07z"></path>
    <path fill="#fff"
          d="M4.21 4.2c0-.24.23-.436.515-.436h3.977c.284 0 .515.196.515.437v1.246c0 .24-.23.436-.515.436H4.725c-.285 0-.516-.195-.516-.436z"
          opacity=".7"></path>
    <path fill="currentColor"
          d="M11.426 5.135h2.725c.285 0 .516.195.516.436v3.801c0 .24-.231.436-.516.436h-2.725zM9.438 12.425v2.305c0 .241-.23.436-.516.436H4.43c-.284 0-.515-.195-.515-.436v-2.305z"></path>
    <path fill="#fff"
          d="M4.667 7.833h.667V8.5h-.667zM4.667 9.833h.667v.667h-.667zM6.667 7.833h.667V8.5h-.667zM6.667 9.833h.667v.667h-.667zM8.667 7.833h.667V8.5h-.667zM8.667 9.833h.667v.667h-.667z"
          opacity=".7"></path>
</svg>