<svg width="16" height="17" viewBox="0 0 16 17" fill="currentColor" xmlns="http://www.w3.org/2000/svg">
    <g id="vuesax/bulk/task-square">
        <g id="task-square">
            <path id="Vector" opacity="0.4" d="M11.352 0.5H4.648C1.736 0.5 0 2.236 0 5.148V11.852C0 14.764 1.736 16.5 4.648 16.5H11.352C14.264 16.5 16 14.764 16 11.852V5.148C16 2.236 14.264 0.5 11.352 0.5Z" />
            <path id="Vector_2" d="M13.0484 5.99648C13.0484 6.32448 12.7844 6.59648 12.4484 6.59648H8.24844C7.92044 6.59648 7.64844 6.32448 7.64844 5.99648C7.64844 5.66848 7.92044 5.39648 8.24844 5.39648H12.4484C12.7844 5.39648 13.0484 5.66848 13.0484 5.99648Z" />
            <path id="Vector_3" d="M6.37624 5.22024L4.57624 7.02024C4.45624 7.14024 4.30424 7.19624 4.15224 7.19624C4.00024 7.19624 3.84024 7.14024 3.72824 7.02024L3.12824 6.42024C2.88824 6.18824 2.88824 5.80424 3.12824 5.57224C3.36024 5.34024 3.73624 5.34024 3.97624 5.57224L4.15224 5.74824L5.52824 4.37224C5.76024 4.14024 6.13624 4.14024 6.37624 4.37224C6.60824 4.60424 6.60824 4.98824 6.37624 5.22024Z" />
            <path id="Vector_4" d="M13.0484 11.5961C13.0484 11.9241 12.7844 12.1961 12.4484 12.1961H8.24844C7.92044 12.1961 7.64844 11.9241 7.64844 11.5961C7.64844 11.2681 7.92044 10.9961 8.24844 10.9961H12.4484C12.7844 10.9961 13.0484 11.2681 13.0484 11.5961Z" />
            <path id="Vector_5" d="M6.37624 10.8199L4.57624 12.6199C4.45624 12.7399 4.30424 12.7959 4.15224 12.7959C4.00024 12.7959 3.84024 12.7399 3.72824 12.6199L3.12824 12.0199C2.88824 11.7879 2.88824 11.4039 3.12824 11.1719C3.36024 10.9399 3.73624 10.9399 3.97624 11.1719L4.15224 11.3479L5.52824 9.97185C5.76024 9.73985 6.13624 9.73985 6.37624 9.97185C6.60824 10.2039 6.60824 10.5879 6.37624 10.8199Z" />
        </g>
    </g>
</svg>
