<svg xmlns="http://www.w3.org/2000/svg" width="20" height="20" fill="currentColor" class="nuxt-icon nuxt-icon--fill dt-header__nav__item__icon dt-header__nav__item__icon" viewBox="0 0 17 17" data-v-0fb4dd66=""><path d="M11.167 1.834H5.834q-4 0-4 4V14.5c0 .367.3.667.666.667h8.667q4 0 4-4V5.834q0-4-4-4" opacity=".4"></path><path d="M11.533 5.473c-.84-.84-1.653-.86-2.513 0L8.493 6a.19.19 0 0 0-.046.173 3.49 3.49 0 0 0 2.387 2.387q.021.009.053.007c.046 0 .093-.02.126-.054l.52-.52c.427-.426.634-.833.634-1.246 0-.434-.207-.847-.634-1.274M10.06 8.947a3 3 0 0 1-.36-.194 2.4 2.4 0 0 1-.273-.18 2 2 0 0 1-.247-.186.3.3 0 0 1-.073-.067c-.14-.12-.3-.28-.447-.447-.013-.006-.033-.04-.06-.08a3 3 0 0 1-.18-.233 2 2 0 0 1-.167-.253 4 4 0 0 1-.186-.354c-.06-.133-.107-.253-.154-.373L5.4 9.093a1.43 1.43 0 0 0-.353.7l-.194 1.387a.88.88 0 0 0 .22.753.84.84 0 0 0 .6.234c.054 0 .1-.007.154-.014l1.386-.193a1.43 1.43 0 0 0 .7-.353l2.514-2.514q-.178-.068-.367-.146"></path></svg>