<svg width="16" height="17" viewBox="0 0 16 17" fill="currentColor" xmlns="http://www.w3.org/2000/svg">
    <path opacity="0.4" d="M12 13.0732H11.4933C10.96 13.0732 10.4533 13.2798 10.08 13.6532L8.93998 14.7798C8.41998 15.2932 7.57334 15.2932 7.05334 14.7798L5.91333 13.6532C5.54 13.2798 5.02667 13.0732 4.5 13.0732H4C2.89333 13.0732 2 12.1865 2 11.0932V3.81982C2 2.72649 2.89333 1.83984 4 1.83984H12C13.1067 1.83984 14 2.72649 14 3.81982V11.0932C14 12.1798 13.1067 13.0732 12 13.0732Z" />
    <path d="M8.00012 7.43966C8.858 7.43966 9.55347 6.74423 9.55347 5.88635C9.55347 5.02847 8.858 4.33301 8.00012 4.33301C7.14224 4.33301 6.44678 5.02847 6.44678 5.88635C6.44678 6.74423 7.14224 7.43966 8.00012 7.43966Z" />
    <path d="M9.78661 10.5396C10.3266 10.5396 10.64 9.93955 10.34 9.49288C9.88662 8.81955 9.00662 8.36621 7.99995 8.36621C6.99328 8.36621 6.11328 8.81955 5.65994 9.49288C5.35994 9.93955 5.67329 10.5396 6.21329 10.5396H9.78661Z" />
</svg>
