<svg xmlns="http://www.w3.org/2000/svg" width="16" height="17" viewBox="0 0 16 17" fill="currentColor">
    <path d="M10.8337 15.5003C11.478 15.5003 12.0003 14.978 12.0003 14.3337C12.0003 13.6893 11.478 13.167 10.8337 13.167C10.1893 13.167 9.66699 13.6893 9.66699 14.3337C9.66699 14.978 10.1893 15.5003 10.8337 15.5003Z" />
    <path d="M5.49967 15.5003C6.14401 15.5003 6.66634 14.978 6.66634 14.3337C6.66634 13.6893 6.14401 13.167 5.49967 13.167C4.85534 13.167 4.33301 13.6893 4.33301 14.3337C4.33301 14.978 4.85534 15.5003 5.49967 15.5003Z"/>
    <path opacity="0.4" d="M3.22634 3.12634L3.09301 4.75967C3.06634 5.07301 3.31301 5.33301 3.62634 5.33301H13.833C14.113 5.33301 14.3463 5.11967 14.3663 4.83967C14.453 3.65967 13.553 2.69968 12.373 2.69968H4.193C4.12634 2.40634 3.993 2.12634 3.78634 1.89301C3.45967 1.53967 2.99301 1.33301 2.51301 1.33301H1.33301C1.05967 1.33301 0.833008 1.55967 0.833008 1.83301C0.833008 2.10634 1.05967 2.33301 1.33301 2.33301H2.49301C2.69968 2.33301 2.89301 2.41968 3.03301 2.56635C3.17301 2.71968 3.23967 2.91968 3.22634 3.12634Z" />
    <path d="M13.6737 6.33301H3.44703C3.16703 6.33301 2.94036 6.54634 2.91369 6.81967L2.67369 9.71968C2.58036 10.853 3.4737 11.833 4.6137 11.833H12.027C13.027 11.833 13.907 11.013 13.9804 10.013L14.2004 6.89968C14.227 6.59301 13.987 6.33301 13.6737 6.33301Z" />
</svg>
