<svg width="16" height="17" viewBox="0 0 16 17" fill="currentColor" xmlns="http://www.w3.org/2000/svg">
    <g id="vuesax/bulk/convert-card">
        <g id="convert-card">
            <g id="Group">
                <path id="Vector (Stroke)" opacity="0.4" fill-rule="evenodd" clip-rule="evenodd" d="M14.6667 10C14.9428 10 15.1667 10.2239 15.1667 10.5C15.1667 13.3561 12.8561 15.6667 10 15.6667C9.81986 15.6667 9.65365 15.5698 9.5649 15.413C9.47615 15.2563 9.47857 15.0639 9.57125 14.9094L10.2712 13.7428C10.4133 13.506 10.7204 13.4292 10.9572 13.5713C11.194 13.7133 11.2708 14.0205 11.1287 14.2572L10.9479 14.5587C12.7939 14.1304 14.1667 12.4777 14.1667 10.5C14.1667 10.2239 14.3905 10 14.6667 10Z" />
                <path id="Vector (Stroke)_2" opacity="0.4" fill-rule="evenodd" clip-rule="evenodd" d="M5.05181 2.44096C3.20574 2.86925 1.83301 4.52195 1.83301 6.49967C1.83301 6.77582 1.60915 6.99967 1.33301 6.99967C1.05687 6.99967 0.833008 6.77582 0.833008 6.49967C0.833008 3.64353 3.14353 1.33301 5.99967 1.33301C6.17981 1.33301 6.34602 1.4299 6.43477 1.58666C6.52353 1.74341 6.5211 1.93579 6.42842 2.09025L5.72843 3.25692C5.58636 3.49371 5.27923 3.57049 5.04244 3.42842C4.80565 3.28635 4.72886 2.97922 4.87093 2.74243L5.05181 2.44096Z" />
            </g>
            <path id="Vector" opacity="0.4" d="M7.99967 10.9667V11.3733H1.33301V10.9667C1.33301 9.79333 1.62634 9.5 2.81301 9.5H6.51967C7.70634 9.5 7.99967 9.79333 7.99967 10.9667Z" />
            <path id="Vector_2" d="M1.33301 11.373V12.373V13.6997C1.33301 14.873 1.62634 15.1664 2.81301 15.1664H6.51967C7.70634 15.1664 7.99967 14.873 7.99967 13.6997V12.373V11.373H1.33301Z" />
            <path id="Vector_3" opacity="0.4" d="M14.6667 3.29967V3.70634H8V3.29967C8 2.12634 8.29333 1.83301 9.48 1.83301H13.1867C14.3733 1.83301 14.6667 2.12634 14.6667 3.29967Z" />
            <path id="Vector_4" d="M8 3.70703V4.70703V6.0337C8 7.20703 8.29333 7.50036 9.48 7.50036H13.1867C14.3733 7.50036 14.6667 7.20703 14.6667 6.0337V4.70703V3.70703H8Z" />
        </g>
    </g>
</svg>
