<svg width="16" height="17" viewBox="0 0 16 17" fill="currentColor" xmlns="http://www.w3.org/2000/svg">
    <g id="vuesax/bulk/box">
        <g id="box">
            <path id="Vector" opacity="0.4" d="M13.3996 5.12633C13.3996 5.48633 13.2063 5.81297 12.8996 5.97964L11.7396 6.60631L10.7529 7.133L8.70628 8.23965C8.48628 8.35965 8.24628 8.41966 7.99961 8.41966C7.75295 8.41966 7.51295 8.35965 7.29295 8.23965L3.09961 5.97964C2.79294 5.81297 2.59961 5.48633 2.59961 5.12633C2.59961 4.76633 2.79294 4.43964 3.09961 4.27298L4.41294 3.56631L5.45961 2.99966L7.29295 2.01301C7.73295 1.77301 8.26628 1.77301 8.70628 2.01301L12.8996 4.27298C13.2063 4.43964 13.3996 4.76633 13.3996 5.12633Z" />
            <path id="Vector_2" opacity="0.4" d="M6.60014 9.02659L2.70013 7.07326C2.40013 6.91993 2.05347 6.93992 1.76681 7.11326C1.48014 7.28659 1.31348 7.59328 1.31348 7.92661V11.6133C1.31348 12.2533 1.6668 12.8266 2.24013 13.1133L6.14014 15.06C6.27347 15.1266 6.42015 15.1599 6.56681 15.1599C6.74015 15.1599 6.91348 15.1133 7.06681 15.0133C7.35348 14.8399 7.52014 14.5333 7.52014 14.1999V10.5133C7.52681 9.88661 7.17347 9.31325 6.60014 9.02659Z" />
            <path id="Vector_3" opacity="0.4" d="M14.687 7.93376V11.6204C14.687 12.2537 14.3336 12.8271 13.7603 13.1137L9.86031 15.0671C9.72698 15.1337 9.5803 15.1671 9.43363 15.1671C9.2603 15.1671 9.08698 15.1204 8.92698 15.0204C8.64698 14.8471 8.47363 14.5404 8.47363 14.2071V10.5271C8.47363 9.88707 8.82698 9.31373 9.40031 9.02707L10.8336 8.31373L11.8336 7.81373L13.3003 7.08041C13.6003 6.92708 13.947 6.94041 14.2336 7.12041C14.5136 7.29374 14.687 7.60043 14.687 7.93376Z" />
            <path id="Vector_4" d="M11.7397 6.60665L10.7531 7.13334L4.41309 3.56665L5.45976 3L11.5798 6.45333C11.6464 6.49333 11.6997 6.54665 11.7397 6.60665Z" fill="D:\Projects\Header\src\assets\icons\wms.svg"/>
            <path id="Vector_5" d="M11.833 7.81348V9.32682C11.833 9.60016 11.6063 9.82682 11.333 9.82682C11.0597 9.82682 10.833 9.60016 10.833 9.32682V8.31348L11.833 7.81348Z" />
        </g>
    </g>
</svg>
